<svg xmlns="http://www.w3.org/2000/svg" width="512" height="512" viewBox="0 0 512 512" version="1.1"><path d="M 191.750 103.242 L 96 144.350 96 179.991 L 96 215.631 123.988 227.659 L 151.975 239.688 152.238 203.594 L 152.500 167.500 248.500 126.283 C 301.300 103.614, 344.927 84.909, 345.449 84.717 C 346.638 84.279, 291.048 61.971, 289 62.065 C 288.175 62.102, 244.412 80.632, 191.750 103.242 M 339.635 322.073 C 337.644 323.639, 337 325.042, 337 327.813 C 337 331.235, 338.221 332.703, 355.240 349.740 L 373.480 368 355.240 386.260 C 338.374 403.144, 337 404.790, 337 408.105 C 337 412.569, 339.492 415, 344.069 415 C 347.159 415, 349.202 413.280, 365.740 396.760 L 384 378.520 402.330 396.831 C 420.302 414.782, 420.736 415.135, 424.481 414.820 C 429.403 414.408, 432.606 410.565, 431.555 406.337 C 431.102 404.517, 424.524 397.135, 413.198 385.737 L 395.547 367.974 412.667 350.737 C 429.478 333.810, 432 330.778, 432 327.489 C 432 325.069, 426.509 320, 423.887 320 C 422.282 320, 416.187 325.405, 403.037 338.489 L 384.454 356.979 368.977 341.385 C 352.799 325.085, 346.856 320, 343.985 320 C 343.042 320, 341.084 320.933, 339.635 322.073" stroke="none" fill="#595959" fill-rule="evenodd"/><path d="M 191.750 103.242 L 96 144.350 96 179.991 L 96 215.631 123.988 227.659 L 151.975 239.688 152.238 203.594 L 152.500 167.500 248.500 126.283 C 301.300 103.614, 344.927 84.909, 345.449 84.717 C 346.638 84.279, 291.048 61.971, 289 62.065 C 288.175 62.102, 244.412 80.632, 191.750 103.242 M 339.635 322.073 C 337.644 323.639, 337 325.042, 337 327.813 C 337 331.235, 338.221 332.703, 355.240 349.740 L 373.480 368 355.240 386.260 C 338.374 403.144, 337 404.790, 337 408.105 C 337 412.569, 339.492 415, 344.069 415 C 347.159 415, 349.202 413.280, 365.740 396.760 L 384 378.520 402.330 396.831 C 420.302 414.782, 420.736 415.135, 424.481 414.820 C 429.403 414.408, 432.606 410.565, 431.555 406.337 C 431.102 404.517, 424.524 397.135, 413.198 385.737 L 395.547 367.974 412.667 350.737 C 429.478 333.810, 432 330.778, 432 327.489 C 432 325.069, 426.509 320, 423.887 320 C 422.282 320, 416.187 325.405, 403.037 338.489 L 384.454 356.979 368.977 341.385 C 352.799 325.085, 346.856 320, 343.985 320 C 343.042 320, 341.084 320.933, 339.635 322.073" stroke="none" fill="#595959" fill-rule="evenodd"/><path d="M 115.239 71.850 L 15.979 111.607 55.518 127.413 C 79.419 136.967, 95.843 143.013, 97.045 142.699 C 100.517 141.791, 287.970 61.525, 287.985 60.940 C 288.004 60.224, 217.386 31.984, 215.734 32.047 C 215.055 32.072, 169.833 49.984, 115.239 71.850 M 345 85.602 C 343.625 86.296, 300.875 104.698, 250 126.495 C 199.125 148.292, 157.159 166.461, 156.743 166.870 C 155.962 167.637, 213.341 191, 216.005 191 C 216.825 191, 262.160 173.136, 316.750 151.302 L 416.003 111.605 385.752 99.504 C 343.814 82.728, 347.921 84.129, 345 85.602 M 372 257.067 C 348.164 259.455, 324.167 270.868, 306.153 288.384 C 282.320 311.560, 269.811 345.289, 273.008 377.759 C 275.019 398.175, 277.143 405.816, 284.971 420.790 C 292.650 435.479, 306.978 451.478, 320.955 460.969 C 330.084 467.169, 344.493 473.708, 355.723 476.748 C 364.642 479.162, 367.123 479.395, 384 479.395 C 400.877 479.395, 403.358 479.162, 412.277 476.748 C 423.466 473.719, 437.835 467.207, 447.123 460.955 C 455.911 455.038, 469.981 441.113, 476.072 432.302 C 482.941 422.365, 489.552 408.084, 492.748 396.277 C 495.162 387.358, 495.395 384.877, 495.395 368 C 495.395 351.123, 495.162 348.642, 492.748 339.723 C 489.552 327.916, 482.941 313.635, 476.072 303.698 C 470.077 295.026, 455.941 280.979, 447.500 275.306 C 437.626 268.670, 422.029 261.356, 416.127 260.593 C 414.682 260.406, 410.125 259.565, 406 258.723 C 396.011 256.686, 382.419 256.023, 372 257.067 M 338.174 322.314 C 336.829 323.747, 336 325.915, 336 328.003 C 336 331.042, 337.813 333.200, 354.227 349.701 L 372.454 368.025 354.227 386.273 C 337.992 402.526, 336 404.879, 336 407.805 C 336 412.256, 339.781 416, 344.275 416 C 347.286 416, 349.587 414.108, 366.071 398.078 L 384.500 380.155 402.561 398.078 C 419.092 414.481, 420.921 416, 424.137 416 C 429.781 416, 433.840 410.391, 431.923 405.241 C 431.362 403.734, 423.173 394.744, 413.726 385.263 L 396.548 368.027 413.706 350.763 C 423.143 341.269, 431.333 332.262, 431.907 330.750 C 433.982 325.283, 430.144 320.088, 423.990 320.032 C 420.757 320.003, 419.056 321.425, 402.523 337.977 L 384.567 355.954 366.422 337.977 C 349.033 320.748, 348.113 320, 344.313 320 C 341.462 320, 339.738 320.650, 338.174 322.314" stroke="none" fill="#f2f2f2" fill-rule="evenodd"/><path d="M 316 152 L 216.500 191.798 216.246 303.968 C 216.004 410.512, 216.079 416.110, 217.746 415.580 C 218.711 415.273, 231.650 410.148, 246.500 404.191 L 273.500 393.360 273.294 389.930 C 271.416 358.593, 271.903 350.791, 276.693 335.524 C 282.585 316.740, 290.931 302.993, 304.962 288.962 C 322.703 271.221, 343.845 260.472, 367.919 256.952 C 378.213 255.446, 399.899 256.248, 408.895 258.467 C 412.412 259.334, 415.452 259.881, 415.651 259.682 C 415.850 259.483, 415.898 226.219, 415.756 185.761 L 415.500 112.202 316 152 M 401.490 339.250 L 383.500 357.500 401.750 339.510 C 418.706 322.797, 420.452 321, 419.740 321 C 419.596 321, 411.384 329.212, 401.490 339.250 M 354.993 350.250 L 372.479 368 354.493 386.250 L 336.507 404.500 355 386.250 L 373.493 368 355.500 350.250 L 337.507 332.500 354.993 350.250 M 365.490 397.250 L 347.500 415.500 365.750 397.511 L 384 379.521 401.750 397.011 L 419.500 414.500 402.011 396.750 C 392.392 386.988, 384.287 379, 384 379 C 383.714 379, 375.384 387.212, 365.490 397.250" stroke="none" fill="#8c8c8c" fill-rule="evenodd"/><path d="M 16.014 224.258 L 16.028 336.500 114.264 375.717 C 168.294 397.287, 213.289 415.223, 214.254 415.576 C 215.921 416.185, 215.996 410.618, 215.754 304.010 L 215.500 191.803 184.963 179.581 C 168.168 172.858, 153.880 167.540, 153.213 167.762 C 152.292 168.069, 152 176.823, 152 204.083 C 152 223.838, 151.872 240, 151.716 240 C 151.559 240, 139.072 234.691, 123.966 228.203 L 96.500 216.406 96 180.104 L 95.500 143.802 60 129.603 C 40.475 121.793, 22.587 114.641, 20.250 113.710 L 16 112.016 16.014 224.258" stroke="none" fill="#bfbfbf" fill-rule="evenodd"/><path d="M 191.750 103.242 L 96 144.350 96 179.991 L 96 215.631 123.988 227.659 L 151.975 239.688 152.238 203.594 L 152.500 167.500 248.500 126.283 C 301.300 103.614, 344.927 84.909, 345.449 84.717 C 346.638 84.279, 291.048 61.971, 289 62.065 C 288.175 62.102, 244.412 80.632, 191.750 103.242 M 339.635 322.073 C 337.644 323.639, 337 325.042, 337 327.813 C 337 331.235, 338.221 332.703, 355.240 349.740 L 373.480 368 355.240 386.260 C 338.374 403.144, 337 404.790, 337 408.105 C 337 412.569, 339.492 415, 344.069 415 C 347.159 415, 349.202 413.280, 365.740 396.760 L 384 378.520 402.330 396.831 C 420.302 414.782, 420.736 415.135, 424.481 414.820 C 429.403 414.408, 432.606 410.565, 431.555 406.337 C 431.102 404.517, 424.524 397.135, 413.198 385.737 L 395.547 367.974 412.667 350.737 C 429.478 333.810, 432 330.778, 432 327.489 C 432 325.069, 426.509 320, 423.887 320 C 422.282 320, 416.187 325.405, 403.037 338.489 L 384.454 356.979 368.977 341.385 C 352.799 325.085, 346.856 320, 343.985 320 C 343.042 320, 341.084 320.933, 339.635 322.073" stroke="none" fill="#595959" fill-rule="evenodd"/><path d="M 115.239 71.850 L 15.979 111.607 55.518 127.413 C 79.419 136.967, 95.843 143.013, 97.045 142.699 C 100.517 141.791, 287.970 61.525, 287.985 60.940 C 288.004 60.224, 217.386 31.984, 215.734 32.047 C 215.055 32.072, 169.833 49.984, 115.239 71.850 M 345 85.602 C 343.625 86.296, 300.875 104.698, 250 126.495 C 199.125 148.292, 157.159 166.461, 156.743 166.870 C 155.962 167.637, 213.341 191, 216.005 191 C 216.825 191, 262.160 173.136, 316.750 151.302 L 416.003 111.605 385.752 99.504 C 343.814 82.728, 347.921 84.129, 345 85.602 M 372 257.067 C 348.164 259.455, 324.167 270.868, 306.153 288.384 C 282.320 311.560, 269.811 345.289, 273.008 377.759 C 275.019 398.175, 277.143 405.816, 284.971 420.790 C 292.650 435.479, 306.978 451.478, 320.955 460.969 C 330.084 467.169, 344.493 473.708, 355.723 476.748 C 364.642 479.162, 367.123 479.395, 384 479.395 C 400.877 479.395, 403.358 479.162, 412.277 476.748 C 423.466 473.719, 437.835 467.207, 447.123 460.955 C 455.911 455.038, 469.981 441.113, 476.072 432.302 C 482.941 422.365, 489.552 408.084, 492.748 396.277 C 495.162 387.358, 495.395 384.877, 495.395 368 C 495.395 351.123, 495.162 348.642, 492.748 339.723 C 489.552 327.916, 482.941 313.635, 476.072 303.698 C 470.077 295.026, 455.941 280.979, 447.500 275.306 C 437.626 268.670, 422.029 261.356, 416.127 260.593 C 414.682 260.406, 410.125 259.565, 406 258.723 C 396.011 256.686, 382.419 256.023, 372 257.067 M 338.174 322.314 C 336.829 323.747, 336 325.915, 336 328.003 C 336 331.042, 337.813 333.200, 354.227 349.701 L 372.454 368.025 354.227 386.273 C 337.992 402.526, 336 404.879, 336 407.805 C 336 412.256, 339.781 416, 344.275 416 C 347.286 416, 349.587 414.108, 366.071 398.078 L 384.500 380.155 402.561 398.078 C 419.092 414.481, 420.921 416, 424.137 416 C 429.781 416, 433.840 410.391, 431.923 405.241 C 431.362 403.734, 423.173 394.744, 413.726 385.263 L 396.548 368.027 413.706 350.763 C 423.143 341.269, 431.333 332.262, 431.907 330.750 C 433.982 325.283, 430.144 320.088, 423.990 320.032 C 420.757 320.003, 419.056 321.425, 402.523 337.977 L 384.567 355.954 366.422 337.977 C 349.033 320.748, 348.113 320, 344.313 320 C 341.462 320, 339.738 320.650, 338.174 322.314" stroke="none" fill="#f2f2f2" fill-rule="evenodd"/><path d="M 316 152 L 216.500 191.798 216.246 303.968 C 216.004 410.512, 216.079 416.110, 217.746 415.580 C 218.711 415.273, 231.650 410.148, 246.500 404.191 L 273.500 393.360 273.294 389.930 C 271.416 358.593, 271.903 350.791, 276.693 335.524 C 282.585 316.740, 290.931 302.993, 304.962 288.962 C 322.703 271.221, 343.845 260.472, 367.919 256.952 C 378.213 255.446, 399.899 256.248, 408.895 258.467 C 412.412 259.334, 415.452 259.881, 415.651 259.682 C 415.850 259.483, 415.898 226.219, 415.756 185.761 L 415.500 112.202 316 152 M 401.490 339.250 L 383.500 357.500 401.750 339.510 C 418.706 322.797, 420.452 321, 419.740 321 C 419.596 321, 411.384 329.212, 401.490 339.250 M 354.993 350.250 L 372.479 368 354.493 386.250 L 336.507 404.500 355 386.250 L 373.493 368 355.500 350.250 L 337.507 332.500 354.993 350.250 M 365.490 397.250 L 347.500 415.500 365.750 397.511 L 384 379.521 401.750 397.011 L 419.500 414.500 402.011 396.750 C 392.392 386.988, 384.287 379, 384 379 C 383.714 379, 375.384 387.212, 365.490 397.250" stroke="none" fill="#8c8c8c" fill-rule="evenodd"/><path d="M 304.453 289.250 L 300.500 293.500 304.750 289.547 C 308.702 285.871, 309.460 285, 308.703 285 C 308.540 285, 306.627 286.913, 304.453 289.250 M 366.500 339 C 375.838 348.350, 383.703 356, 383.978 356 C 384.253 356, 376.838 348.350, 367.500 339 C 358.162 329.650, 350.297 322, 350.022 322 C 349.747 322, 357.162 329.650, 366.500 339 M 412.496 351.004 L 395.515 368.008 413.504 385.754 L 431.493 403.500 414.007 385.750 L 396.522 368 413.500 351 C 422.838 341.650, 430.253 334, 429.978 334 C 429.703 334, 421.836 341.652, 412.496 351.004 M 372.483 391.250 L 361.500 402.500 372.750 391.517 C 378.938 385.476, 384 380.414, 384 380.267 C 384 379.546, 382.684 380.801, 372.483 391.250" stroke="none" fill="#dcdcdc" fill-rule="evenodd"/></svg>