<svg xmlns="http://www.w3.org/2000/svg" width="512" height="512" viewBox="0 0 512 512" version="1.1"><path d="M 275.635 82.073 C 273.644 83.639, 273 85.042, 273 87.813 C 273 91.235, 274.221 92.703, 291.240 109.740 L 309.480 128 291.240 146.260 C 274.374 163.144, 273 164.790, 273 168.105 C 273 172.569, 275.492 175, 280.069 175 C 283.159 175, 285.202 173.280, 301.740 156.760 L 320 138.520 338.330 156.831 C 356.302 174.782, 356.736 175.135, 360.481 174.820 C 365.403 174.408, 368.606 170.565, 367.555 166.337 C 367.102 164.517, 360.524 157.135, 349.198 145.737 L 331.547 127.974 348.667 110.737 C 365.478 93.810, 368 90.778, 368 87.489 C 368 85.069, 362.509 80, 359.887 80 C 358.282 80, 352.187 85.405, 339.037 98.489 L 320.454 116.979 304.977 101.385 C 288.799 85.085, 282.856 80, 279.985 80 C 279.042 80, 277.084 80.933, 275.635 82.073 M 130.923 402.923 C 129.315 404.531, 128 406.815, 128 408 C 128 409.185, 129.315 411.469, 130.923 413.077 L 133.846 416 180 416 L 226.154 416 229.077 413.077 C 232.774 409.380, 232.774 406.620, 229.077 402.923 L 226.154 400 180 400 L 133.846 400 130.923 402.923 M 106.923 442.923 C 105.315 444.531, 104 446.815, 104 448 C 104 449.185, 105.315 451.469, 106.923 453.077 L 109.846 456 184 456 L 258.154 456 261.077 453.077 C 264.774 449.380, 264.774 446.620, 261.077 442.923 L 258.154 440 184 440 L 109.846 440 106.923 442.923" stroke="none" fill="#595959" fill-rule="evenodd"/><path d="M 117.325 305.612 C 115.578 306.473, 113.480 307.925, 112.663 308.839 C 111.845 309.752, 89.761 349.963, 63.588 398.195 C 31.047 458.161, 16 486.834, 16 488.873 C 16 490.903, 16.841 492.516, 18.635 493.927 L 21.270 496 205.624 496 C 385.209 496, 390.110 495.950, 395.048 494.074 C 401.923 491.461, 406.449 487.817, 410.461 481.663 C 413.475 477.038, 486.702 342.420, 493.466 329.069 C 498.267 319.592, 495.744 309.479, 487.619 305.623 C 484.501 304.144, 468.089 304.002, 302.349 304.023 C 139.349 304.043, 120.171 304.208, 117.325 305.612 M 130.455 402.455 C 128.907 404.002, 128 406.052, 128 408 C 128 409.948, 128.907 411.998, 130.455 413.545 L 132.909 416 180 416 L 227.091 416 229.545 413.545 C 232.793 410.298, 232.793 405.702, 229.545 402.455 L 227.091 400 180 400 L 132.909 400 130.455 402.455 M 106.455 442.455 C 104.907 444.002, 104 446.052, 104 448 C 104 449.948, 104.907 451.998, 106.455 453.545 L 108.909 456 184 456 L 259.091 456 261.545 453.545 C 264.793 450.298, 264.793 445.702, 261.545 442.455 L 259.091 440 184 440 L 108.909 440 106.455 442.455" stroke="none" fill="#bfbfbf" fill-rule="evenodd"/><path d="M 337.490 99.250 L 319.500 117.500 337.750 99.510 C 354.706 82.797, 356.452 81, 355.740 81 C 355.596 81, 347.384 89.213, 337.490 99.250 M 290.993 110.250 L 308.479 128 290.493 146.250 L 272.507 164.500 291 146.250 L 309.493 128 291.500 110.250 L 273.507 92.500 290.993 110.250 M 301.490 157.250 L 283.500 175.500 301.750 157.511 L 320 139.521 337.750 157.011 L 355.500 174.500 338.011 156.750 C 328.392 146.988, 320.287 139, 320 139 C 319.714 139, 311.384 147.213, 301.490 157.250 M 29.459 146.367 C 23.623 149.085, 19.865 153.146, 17.577 159.211 C 16.107 163.109, 15.984 178.159, 16.230 324.244 L 16.500 484.988 64 397.382 C 101.716 327.821, 112.205 309.232, 114.922 307.138 L 118.344 304.500 259.172 304.240 L 400 303.980 400 257.572 C 400 232.047, 399.730 210.460, 399.400 209.600 C 398.926 208.364, 397.616 209.064, 393.150 212.939 C 381.645 222.921, 364.359 232.181, 349.823 236.149 C 345.621 237.296, 345.248 237.751, 336.500 252.414 C 326.102 269.844, 324.285 272, 320 272 C 315.700 272, 313.853 269.805, 303.529 252.427 L 294.575 237.353 288.364 235.575 C 267.466 229.590, 245.094 214.473, 231.982 197.476 L 227.757 192 201.628 191.955 C 183.462 191.924, 174.696 191.543, 172.861 190.705 C 171.409 190.042, 162.895 180.725, 153.941 170 C 135.999 148.508, 136.187 148.701, 130.500 145.967 C 126.733 144.156, 123.820 144.043, 80.500 144.032 L 34.500 144.020 29.459 146.367" stroke="none" fill="#8c8c8c" fill-rule="evenodd"/><path d="M 275.635 82.073 C 273.644 83.639, 273 85.042, 273 87.813 C 273 91.235, 274.221 92.703, 291.240 109.740 L 309.480 128 291.240 146.260 C 274.374 163.144, 273 164.790, 273 168.105 C 273 172.569, 275.492 175, 280.069 175 C 283.159 175, 285.202 173.280, 301.740 156.760 L 320 138.520 338.330 156.831 C 356.302 174.782, 356.736 175.135, 360.481 174.820 C 365.403 174.408, 368.606 170.565, 367.555 166.337 C 367.102 164.517, 360.524 157.135, 349.198 145.737 L 331.547 127.974 348.667 110.737 C 365.478 93.810, 368 90.778, 368 87.489 C 368 85.069, 362.509 80, 359.887 80 C 358.282 80, 352.187 85.405, 339.037 98.489 L 320.454 116.979 304.977 101.385 C 288.799 85.085, 282.856 80, 279.985 80 C 279.042 80, 277.084 80.933, 275.635 82.073 M 130.923 402.923 C 129.315 404.531, 128 406.815, 128 408 C 128 409.185, 129.315 411.469, 130.923 413.077 L 133.846 416 180 416 L 226.154 416 229.077 413.077 C 232.774 409.380, 232.774 406.620, 229.077 402.923 L 226.154 400 180 400 L 133.846 400 130.923 402.923 M 106.923 442.923 C 105.315 444.531, 104 446.815, 104 448 C 104 449.185, 105.315 451.469, 106.923 453.077 L 109.846 456 184 456 L 258.154 456 261.077 453.077 C 264.774 449.380, 264.774 446.620, 261.077 442.923 L 258.154 440 184 440 L 109.846 440 106.923 442.923" stroke="none" fill="#595959" fill-rule="evenodd"/><path d="M 297.500 17.975 C 274.092 23.042, 255.294 33.550, 238.853 50.758 C 225.526 64.708, 216.580 80.544, 211.287 99.558 C 208.711 108.813, 208.522 110.779, 208.562 128 C 208.602 144.864, 208.843 147.384, 211.297 156.500 C 214.391 167.993, 223.179 186.367, 228.738 192.967 C 248.484 216.409, 265.874 228.635, 288.500 234.981 L 294.500 236.664 304.500 253.069 C 319.576 277.802, 320.364 277.803, 335.503 253.093 L 345.552 236.690 351.526 235.007 C 369.555 229.927, 385.319 220.341, 401.368 204.698 C 413.629 192.747, 423.695 174.933, 428.766 156.206 C 431.160 147.368, 431.395 144.846, 431.395 128 C 431.395 111.034, 431.171 108.671, 428.693 99.500 C 425.471 87.570, 417.015 70.021, 410.119 60.949 C 403.794 52.629, 391.186 40.559, 383.045 35.031 C 373.819 28.766, 359.425 22.260, 348.277 19.318 C 334.648 15.721, 310.824 15.091, 297.500 17.975 M 274.073 82.635 C 269.559 88.372, 270.382 89.750, 290.215 109.689 L 308.429 128 290.215 146.311 C 274.125 162.487, 272 165, 272 167.857 C 272 172.189, 275.811 176, 280.143 176 C 283 176, 285.513 173.875, 301.689 157.785 L 320 139.571 338.311 157.785 C 353.803 173.195, 357.080 176, 359.589 176 C 365.986 176, 370.027 170.298, 367.596 164.702 C 366.830 162.941, 358.508 153.855, 349.102 144.510 L 331.999 127.521 350.166 109.334 C 365.857 93.625, 368.333 90.727, 368.333 88.065 C 368.333 83.653, 364.597 80, 360.086 80 C 356.796 80, 355.107 81.411, 338.260 98.240 L 320 116.480 301.740 98.240 C 284.703 81.221, 283.235 80, 279.813 80 C 277.042 80, 275.639 80.644, 274.073 82.635" stroke="none" fill="#f2f2f2" fill-rule="evenodd"/><path d="M 337.490 99.250 L 319.500 117.500 337.750 99.510 C 354.706 82.797, 356.452 81, 355.740 81 C 355.596 81, 347.384 89.213, 337.490 99.250 M 290.993 110.250 L 308.479 128 290.493 146.250 L 272.507 164.500 291 146.250 L 309.493 128 291.500 110.250 L 273.507 92.500 290.993 110.250 M 301.490 157.250 L 283.500 175.500 301.750 157.511 L 320 139.521 337.750 157.011 L 355.500 174.500 338.011 156.750 C 328.392 146.988, 320.287 139, 320 139 C 319.714 139, 311.384 147.213, 301.490 157.250 M 29.459 146.367 C 23.623 149.085, 19.865 153.146, 17.577 159.211 C 16.107 163.109, 15.984 178.159, 16.230 324.244 L 16.500 484.988 64 397.382 C 101.716 327.821, 112.205 309.232, 114.922 307.138 L 118.344 304.500 259.172 304.240 L 400 303.980 400 257.572 C 400 232.047, 399.730 210.460, 399.400 209.600 C 398.926 208.364, 397.616 209.064, 393.150 212.939 C 381.645 222.921, 364.359 232.181, 349.823 236.149 C 345.621 237.296, 345.248 237.751, 336.500 252.414 C 326.102 269.844, 324.285 272, 320 272 C 315.700 272, 313.853 269.805, 303.529 252.427 L 294.575 237.353 288.364 235.575 C 267.466 229.590, 245.094 214.473, 231.982 197.476 L 227.757 192 201.628 191.955 C 183.462 191.924, 174.696 191.543, 172.861 190.705 C 171.409 190.042, 162.895 180.725, 153.941 170 C 135.999 148.508, 136.187 148.701, 130.500 145.967 C 126.733 144.156, 123.820 144.043, 80.500 144.032 L 34.500 144.020 29.459 146.367" stroke="none" fill="#8c8c8c" fill-rule="evenodd"/><path d="M 349 145.500 C 358.613 155.125, 366.704 163, 366.979 163 C 367.254 163, 359.613 155.125, 350 145.500 C 340.387 135.875, 332.296 128, 332.021 128 C 331.746 128, 339.387 135.875, 349 145.500 M 240.500 207 C 242.648 209.200, 244.631 211, 244.906 211 C 245.181 211, 243.648 209.200, 241.500 207 C 239.352 204.800, 237.369 203, 237.094 203 C 236.819 203, 238.352 204.800, 240.500 207" stroke="none" fill="#cecece" fill-rule="evenodd"/></svg>