<svg xmlns="http://www.w3.org/2000/svg" width="512" height="512" viewBox="0 0 512 512" version="1.1"><path d="M 237.919 40.949 C 222.541 43.758, 205.143 50.754, 192.955 59.031 C 184.750 64.603, 172.145 76.692, 165.931 84.949 C 160.342 92.376, 154.057 103.943, 150.572 113.216 L 148.211 119.500 128.261 119.770 C 109.067 120.030, 108.234 120.125, 106.294 122.270 C 105.185 123.497, 84.408 171.525, 60.123 229 L 15.970 333.500 15.985 400.576 L 16 467.651 18.314 469.826 L 20.629 472 256.140 472 L 491.651 472 493.826 469.686 L 496 467.371 496.015 400.436 L 496.030 333.500 451.877 229 C 427.592 171.525, 406.815 123.497, 405.706 122.270 C 403.766 120.125, 402.933 120.030, 383.739 119.770 L 363.789 119.500 361.428 113.216 C 355.304 96.920, 346.192 83.226, 333.242 70.853 C 319.414 57.642, 303.484 48.597, 284.965 43.441 C 276.889 41.193, 273.078 40.755, 259 40.460 C 249.925 40.269, 240.439 40.489, 237.919 40.949 M 245.058 57.081 C 219.545 60.176, 197.362 72.508, 181.350 92.497 C 155.506 124.760, 153.578 170.094, 176.580 204.664 C 189.520 224.111, 208.845 238.185, 230.711 244.087 C 234.995 245.243, 239.400 246.770, 240.500 247.480 C 241.600 248.189, 245.425 253.762, 249 259.863 C 252.575 265.964, 255.736 270.966, 256.025 270.978 C 256.313 270.990, 259.639 265.807, 263.416 259.459 C 267.194 253.112, 271.008 247.539, 271.892 247.075 C 272.776 246.610, 277.005 245.275, 281.289 244.108 C 297.280 239.749, 310.941 231.802, 323.045 219.818 C 357.784 185.422, 361.005 130.427, 330.513 92.316 C 310.118 66.826, 277.068 53.198, 245.058 57.081 M 210.455 106.455 C 208.845 108.065, 208 110.040, 208 112.195 C 208 115.121, 209.992 117.474, 226.227 133.727 L 244.454 151.975 226.227 170.299 C 210.571 186.039, 208 189.054, 208 191.677 C 208 196.385, 211.393 200, 215.813 200 C 219.235 200, 220.703 198.779, 237.740 181.760 L 256 163.520 274.260 181.760 C 291.107 198.589, 292.796 200, 296.086 200 C 300.729 200, 304 196.663, 304 191.925 C 304 188.791, 302.374 186.855, 286.023 170.523 L 268.046 152.567 286.023 134.422 C 303.404 116.880, 304 116.143, 304 112.212 C 304 109.010, 303.440 107.705, 301.365 106.073 C 295.627 101.559, 294.251 102.381, 274.299 122.227 L 255.975 140.454 237.727 122.227 C 221.474 105.992, 219.121 104, 216.195 104 C 214.040 104, 212.065 104.845, 210.455 106.455 M 70.779 247.050 C 52.783 289.647, 37.772 325.288, 37.422 326.250 C 36.835 327.865, 37.898 328, 51.234 328 L 65.682 328 84.865 266.622 L 104.047 205.243 103.774 187.421 L 103.500 169.600 70.779 247.050 M 408.030 187.447 L 408 205.394 427.159 266.697 L 446.318 328 460.659 328 C 468.546 328, 475 327.739, 475 327.421 C 475 326.702, 410.094 173.073, 408.914 171 C 408.418 170.128, 408.048 177.015, 408.030 187.447 M 32 400 L 32 456 256 456 L 480 456 480 400 L 480 344 394.719 344 L 309.439 344 302.969 357.169 C 299.411 364.413, 295.447 371.613, 294.161 373.169 L 291.822 376 256 376 L 220.178 376 217.839 373.169 C 216.553 371.613, 212.589 364.413, 209.031 357.169 L 202.561 344 117.281 344 L 32 344 32 400 M 386.174 394.314 C 383.195 397.486, 383.261 402.957, 386.314 405.826 C 388.590 407.963, 389.163 408, 420.140 408 L 451.651 408 453.826 405.686 C 456.805 402.514, 456.739 397.043, 453.686 394.174 C 451.410 392.037, 450.837 392, 419.860 392 L 388.349 392 386.174 394.314 M 386.174 426.314 C 383.195 429.486, 383.261 434.957, 386.314 437.826 C 388.590 439.963, 389.163 440, 420.140 440 L 451.651 440 453.826 437.686 C 456.805 434.514, 456.739 429.043, 453.686 426.174 C 451.410 424.037, 450.837 424, 419.860 424 L 388.349 424 386.174 426.314" stroke="none" fill="#000000" fill-rule="evenodd"/><path d="M 237.919 40.949 C 222.541 43.758, 205.143 50.754, 192.955 59.031 C 184.750 64.603, 172.145 76.692, 165.931 84.949 C 160.342 92.376, 154.057 103.943, 150.572 113.216 L 148.211 119.500 128.261 119.770 C 109.067 120.030, 108.234 120.125, 106.294 122.270 C 105.185 123.497, 84.408 171.525, 60.123 229 L 15.970 333.500 15.985 400.576 L 16 467.651 18.314 469.826 L 20.629 472 256.140 472 L 491.651 472 493.826 469.686 L 496 467.371 496.015 400.436 L 496.030 333.500 451.877 229 C 427.592 171.525, 406.815 123.497, 405.706 122.270 C 403.766 120.125, 402.933 120.030, 383.739 119.770 L 363.789 119.500 361.428 113.216 C 355.304 96.920, 346.192 83.226, 333.242 70.853 C 319.414 57.642, 303.484 48.597, 284.965 43.441 C 276.889 41.193, 273.078 40.755, 259 40.460 C 249.925 40.269, 240.439 40.489, 237.919 40.949 M 245.058 57.081 C 219.545 60.176, 197.362 72.508, 181.350 92.497 C 155.506 124.760, 153.578 170.094, 176.580 204.664 C 189.520 224.111, 208.845 238.185, 230.711 244.087 C 234.995 245.243, 239.400 246.770, 240.500 247.480 C 241.600 248.189, 245.425 253.762, 249 259.863 C 252.575 265.964, 255.736 270.966, 256.025 270.978 C 256.313 270.990, 259.639 265.807, 263.416 259.459 C 267.194 253.112, 271.008 247.539, 271.892 247.075 C 272.776 246.610, 277.005 245.275, 281.289 244.108 C 297.280 239.749, 310.941 231.802, 323.045 219.818 C 357.784 185.422, 361.005 130.427, 330.513 92.316 C 310.118 66.826, 277.068 53.198, 245.058 57.081 M 210.455 106.455 C 208.845 108.065, 208 110.040, 208 112.195 C 208 115.121, 209.992 117.474, 226.227 133.727 L 244.454 151.975 226.227 170.299 C 210.571 186.039, 208 189.054, 208 191.677 C 208 196.385, 211.393 200, 215.813 200 C 219.235 200, 220.703 198.779, 237.740 181.760 L 256 163.520 274.260 181.760 C 291.107 198.589, 292.796 200, 296.086 200 C 300.729 200, 304 196.663, 304 191.925 C 304 188.791, 302.374 186.855, 286.023 170.523 L 268.046 152.567 286.023 134.422 C 303.404 116.880, 304 116.143, 304 112.212 C 304 109.010, 303.440 107.705, 301.365 106.073 C 295.627 101.559, 294.251 102.381, 274.299 122.227 L 255.975 140.454 237.727 122.227 C 221.474 105.992, 219.121 104, 216.195 104 C 214.040 104, 212.065 104.845, 210.455 106.455 M 70.779 247.050 C 52.783 289.647, 37.772 325.288, 37.422 326.250 C 36.835 327.865, 37.898 328, 51.234 328 L 65.682 328 84.865 266.622 L 104.047 205.243 103.774 187.421 L 103.500 169.600 70.779 247.050 M 408.030 187.447 L 408 205.394 427.159 266.697 L 446.318 328 460.659 328 C 468.546 328, 475 327.739, 475 327.421 C 475 326.702, 410.094 173.073, 408.914 171 C 408.418 170.128, 408.048 177.015, 408.030 187.447 M 32 400 L 32 456 256 456 L 480 456 480 400 L 480 344 394.719 344 L 309.439 344 302.969 357.169 C 299.411 364.413, 295.447 371.613, 294.161 373.169 L 291.822 376 256 376 L 220.178 376 217.839 373.169 C 216.553 371.613, 212.589 364.413, 209.031 357.169 L 202.561 344 117.281 344 L 32 344 32 400 M 386.174 394.314 C 383.195 397.486, 383.261 402.957, 386.314 405.826 C 388.590 407.963, 389.163 408, 420.140 408 L 451.651 408 453.826 405.686 C 456.805 402.514, 456.739 397.043, 453.686 394.174 C 451.410 392.037, 450.837 392, 419.860 392 L 388.349 392 386.174 394.314 M 386.174 426.314 C 383.195 429.486, 383.261 434.957, 386.314 437.826 C 388.590 439.963, 389.163 440, 420.140 440 L 451.651 440 453.826 437.686 C 456.805 434.514, 456.739 429.043, 453.686 426.174 C 451.410 424.037, 450.837 424, 419.860 424 L 388.349 424 386.174 426.314" stroke="none" fill="#000000" fill-rule="evenodd"/><path d="M 237.919 40.949 C 222.541 43.758, 205.143 50.754, 192.955 59.031 C 184.750 64.603, 172.145 76.692, 165.931 84.949 C 160.342 92.376, 154.057 103.943, 150.572 113.216 L 148.211 119.500 128.261 119.770 C 109.067 120.030, 108.234 120.125, 106.294 122.270 C 105.185 123.497, 84.408 171.525, 60.123 229 L 15.970 333.500 15.985 400.576 L 16 467.651 18.314 469.826 L 20.629 472 256.140 472 L 491.651 472 493.826 469.686 L 496 467.371 496.015 400.436 L 496.030 333.500 451.877 229 C 427.592 171.525, 406.815 123.497, 405.706 122.270 C 403.766 120.125, 402.933 120.030, 383.739 119.770 L 363.789 119.500 361.428 113.216 C 355.304 96.920, 346.192 83.226, 333.242 70.853 C 319.414 57.642, 303.484 48.597, 284.965 43.441 C 276.889 41.193, 273.078 40.755, 259 40.460 C 249.925 40.269, 240.439 40.489, 237.919 40.949 M 245.058 57.081 C 219.545 60.176, 197.362 72.508, 181.350 92.497 C 155.506 124.760, 153.578 170.094, 176.580 204.664 C 189.520 224.111, 208.845 238.185, 230.711 244.087 C 234.995 245.243, 239.400 246.770, 240.500 247.480 C 241.600 248.189, 245.425 253.762, 249 259.863 C 252.575 265.964, 255.736 270.966, 256.025 270.978 C 256.313 270.990, 259.639 265.807, 263.416 259.459 C 267.194 253.112, 271.008 247.539, 271.892 247.075 C 272.776 246.610, 277.005 245.275, 281.289 244.108 C 297.280 239.749, 310.941 231.802, 323.045 219.818 C 357.784 185.422, 361.005 130.427, 330.513 92.316 C 310.118 66.826, 277.068 53.198, 245.058 57.081 M 210.455 106.455 C 208.845 108.065, 208 110.040, 208 112.195 C 208 115.121, 209.992 117.474, 226.227 133.727 L 244.454 151.975 226.227 170.299 C 210.571 186.039, 208 189.054, 208 191.677 C 208 196.385, 211.393 200, 215.813 200 C 219.235 200, 220.703 198.779, 237.740 181.760 L 256 163.520 274.260 181.760 C 291.107 198.589, 292.796 200, 296.086 200 C 300.729 200, 304 196.663, 304 191.925 C 304 188.791, 302.374 186.855, 286.023 170.523 L 268.046 152.567 286.023 134.422 C 303.404 116.880, 304 116.143, 304 112.212 C 304 109.010, 303.440 107.705, 301.365 106.073 C 295.627 101.559, 294.251 102.381, 274.299 122.227 L 255.975 140.454 237.727 122.227 C 221.474 105.992, 219.121 104, 216.195 104 C 214.040 104, 212.065 104.845, 210.455 106.455 M 70.779 247.050 C 52.783 289.647, 37.772 325.288, 37.422 326.250 C 36.835 327.865, 37.898 328, 51.234 328 L 65.682 328 84.865 266.622 L 104.047 205.243 103.774 187.421 L 103.500 169.600 70.779 247.050 M 408.030 187.447 L 408 205.394 427.159 266.697 L 446.318 328 460.659 328 C 468.546 328, 475 327.739, 475 327.421 C 475 326.702, 410.094 173.073, 408.914 171 C 408.418 170.128, 408.048 177.015, 408.030 187.447 M 32 400 L 32 456 256 456 L 480 456 480 400 L 480 344 394.719 344 L 309.439 344 302.969 357.169 C 299.411 364.413, 295.447 371.613, 294.161 373.169 L 291.822 376 256 376 L 220.178 376 217.839 373.169 C 216.553 371.613, 212.589 364.413, 209.031 357.169 L 202.561 344 117.281 344 L 32 344 32 400 M 386.174 394.314 C 383.195 397.486, 383.261 402.957, 386.314 405.826 C 388.590 407.963, 389.163 408, 420.140 408 L 451.651 408 453.826 405.686 C 456.805 402.514, 456.739 397.043, 453.686 394.174 C 451.410 392.037, 450.837 392, 419.860 392 L 388.349 392 386.174 394.314 M 386.174 426.314 C 383.195 429.486, 383.261 434.957, 386.314 437.826 C 388.590 439.963, 389.163 440, 420.140 440 L 451.651 440 453.826 437.686 C 456.805 434.514, 456.739 429.043, 453.686 426.174 C 451.410 424.037, 450.837 424, 419.860 424 L 388.349 424 386.174 426.314" stroke="none" fill="#000000" fill-rule="evenodd"/><path d="M 237.919 40.949 C 222.541 43.758, 205.143 50.754, 192.955 59.031 C 184.750 64.603, 172.145 76.692, 165.931 84.949 C 160.342 92.376, 154.057 103.943, 150.572 113.216 L 148.211 119.500 128.261 119.770 C 109.067 120.030, 108.234 120.125, 106.294 122.270 C 105.185 123.497, 84.408 171.525, 60.123 229 L 15.970 333.500 15.985 400.576 L 16 467.651 18.314 469.826 L 20.629 472 256.140 472 L 491.651 472 493.826 469.686 L 496 467.371 496.015 400.436 L 496.030 333.500 451.877 229 C 427.592 171.525, 406.815 123.497, 405.706 122.270 C 403.766 120.125, 402.933 120.030, 383.739 119.770 L 363.789 119.500 361.428 113.216 C 355.304 96.920, 346.192 83.226, 333.242 70.853 C 319.414 57.642, 303.484 48.597, 284.965 43.441 C 276.889 41.193, 273.078 40.755, 259 40.460 C 249.925 40.269, 240.439 40.489, 237.919 40.949 M 245.058 57.081 C 219.545 60.176, 197.362 72.508, 181.350 92.497 C 155.506 124.760, 153.578 170.094, 176.580 204.664 C 189.520 224.111, 208.845 238.185, 230.711 244.087 C 234.995 245.243, 239.400 246.770, 240.500 247.480 C 241.600 248.189, 245.425 253.762, 249 259.863 C 252.575 265.964, 255.736 270.966, 256.025 270.978 C 256.313 270.990, 259.639 265.807, 263.416 259.459 C 267.194 253.112, 271.008 247.539, 271.892 247.075 C 272.776 246.610, 277.005 245.275, 281.289 244.108 C 297.280 239.749, 310.941 231.802, 323.045 219.818 C 357.784 185.422, 361.005 130.427, 330.513 92.316 C 310.118 66.826, 277.068 53.198, 245.058 57.081 M 210.455 106.455 C 208.845 108.065, 208 110.040, 208 112.195 C 208 115.121, 209.992 117.474, 226.227 133.727 L 244.454 151.975 226.227 170.299 C 210.571 186.039, 208 189.054, 208 191.677 C 208 196.385, 211.393 200, 215.813 200 C 219.235 200, 220.703 198.779, 237.740 181.760 L 256 163.520 274.260 181.760 C 291.107 198.589, 292.796 200, 296.086 200 C 300.729 200, 304 196.663, 304 191.925 C 304 188.791, 302.374 186.855, 286.023 170.523 L 268.046 152.567 286.023 134.422 C 303.404 116.880, 304 116.143, 304 112.212 C 304 109.010, 303.440 107.705, 301.365 106.073 C 295.627 101.559, 294.251 102.381, 274.299 122.227 L 255.975 140.454 237.727 122.227 C 221.474 105.992, 219.121 104, 216.195 104 C 214.040 104, 212.065 104.845, 210.455 106.455 M 70.779 247.050 C 52.783 289.647, 37.772 325.288, 37.422 326.250 C 36.835 327.865, 37.898 328, 51.234 328 L 65.682 328 84.865 266.622 L 104.047 205.243 103.774 187.421 L 103.500 169.600 70.779 247.050 M 408.030 187.447 L 408 205.394 427.159 266.697 L 446.318 328 460.659 328 C 468.546 328, 475 327.739, 475 327.421 C 475 326.702, 410.094 173.073, 408.914 171 C 408.418 170.128, 408.048 177.015, 408.030 187.447 M 32 400 L 32 456 256 456 L 480 456 480 400 L 480 344 394.719 344 L 309.439 344 302.969 357.169 C 299.411 364.413, 295.447 371.613, 294.161 373.169 L 291.822 376 256 376 L 220.178 376 217.839 373.169 C 216.553 371.613, 212.589 364.413, 209.031 357.169 L 202.561 344 117.281 344 L 32 344 32 400 M 386.174 394.314 C 383.195 397.486, 383.261 402.957, 386.314 405.826 C 388.590 407.963, 389.163 408, 420.140 408 L 451.651 408 453.826 405.686 C 456.805 402.514, 456.739 397.043, 453.686 394.174 C 451.410 392.037, 450.837 392, 419.860 392 L 388.349 392 386.174 394.314 M 386.174 426.314 C 383.195 429.486, 383.261 434.957, 386.314 437.826 C 388.590 439.963, 389.163 440, 420.140 440 L 451.651 440 453.826 437.686 C 456.805 434.514, 456.739 429.043, 453.686 426.174 C 451.410 424.037, 450.837 424, 419.860 424 L 388.349 424 386.174 426.314" stroke="none" fill="#000000" fill-rule="evenodd"/><path d="M 237.919 40.949 C 222.541 43.758, 205.143 50.754, 192.955 59.031 C 184.750 64.603, 172.145 76.692, 165.931 84.949 C 160.342 92.376, 154.057 103.943, 150.572 113.216 L 148.211 119.500 128.261 119.770 C 109.067 120.030, 108.234 120.125, 106.294 122.270 C 105.185 123.497, 84.408 171.525, 60.123 229 L 15.970 333.500 15.985 400.576 L 16 467.651 18.314 469.826 L 20.629 472 256.140 472 L 491.651 472 493.826 469.686 L 496 467.371 496.015 400.436 L 496.030 333.500 451.877 229 C 427.592 171.525, 406.815 123.497, 405.706 122.270 C 403.766 120.125, 402.933 120.030, 383.739 119.770 L 363.789 119.500 361.428 113.216 C 355.304 96.920, 346.192 83.226, 333.242 70.853 C 319.414 57.642, 303.484 48.597, 284.965 43.441 C 276.889 41.193, 273.078 40.755, 259 40.460 C 249.925 40.269, 240.439 40.489, 237.919 40.949 M 245.058 57.081 C 219.545 60.176, 197.362 72.508, 181.350 92.497 C 155.506 124.760, 153.578 170.094, 176.580 204.664 C 189.520 224.111, 208.845 238.185, 230.711 244.087 C 234.995 245.243, 239.400 246.770, 240.500 247.480 C 241.600 248.189, 245.425 253.762, 249 259.863 C 252.575 265.964, 255.736 270.966, 256.025 270.978 C 256.313 270.990, 259.639 265.807, 263.416 259.459 C 267.194 253.112, 271.008 247.539, 271.892 247.075 C 272.776 246.610, 277.005 245.275, 281.289 244.108 C 297.280 239.749, 310.941 231.802, 323.045 219.818 C 357.784 185.422, 361.005 130.427, 330.513 92.316 C 310.118 66.826, 277.068 53.198, 245.058 57.081 M 210.455 106.455 C 208.845 108.065, 208 110.040, 208 112.195 C 208 115.121, 209.992 117.474, 226.227 133.727 L 244.454 151.975 226.227 170.299 C 210.571 186.039, 208 189.054, 208 191.677 C 208 196.385, 211.393 200, 215.813 200 C 219.235 200, 220.703 198.779, 237.740 181.760 L 256 163.520 274.260 181.760 C 291.107 198.589, 292.796 200, 296.086 200 C 300.729 200, 304 196.663, 304 191.925 C 304 188.791, 302.374 186.855, 286.023 170.523 L 268.046 152.567 286.023 134.422 C 303.404 116.880, 304 116.143, 304 112.212 C 304 109.010, 303.440 107.705, 301.365 106.073 C 295.627 101.559, 294.251 102.381, 274.299 122.227 L 255.975 140.454 237.727 122.227 C 221.474 105.992, 219.121 104, 216.195 104 C 214.040 104, 212.065 104.845, 210.455 106.455 M 70.779 247.050 C 52.783 289.647, 37.772 325.288, 37.422 326.250 C 36.835 327.865, 37.898 328, 51.234 328 L 65.682 328 84.865 266.622 L 104.047 205.243 103.774 187.421 L 103.500 169.600 70.779 247.050 M 408.030 187.447 L 408 205.394 427.159 266.697 L 446.318 328 460.659 328 C 468.546 328, 475 327.739, 475 327.421 C 475 326.702, 410.094 173.073, 408.914 171 C 408.418 170.128, 408.048 177.015, 408.030 187.447 M 32 400 L 32 456 256 456 L 480 456 480 400 L 480 344 394.719 344 L 309.439 344 302.969 357.169 C 299.411 364.413, 295.447 371.613, 294.161 373.169 L 291.822 376 256 376 L 220.178 376 217.839 373.169 C 216.553 371.613, 212.589 364.413, 209.031 357.169 L 202.561 344 117.281 344 L 32 344 32 400 M 386.174 394.314 C 383.195 397.486, 383.261 402.957, 386.314 405.826 C 388.590 407.963, 389.163 408, 420.140 408 L 451.651 408 453.826 405.686 C 456.805 402.514, 456.739 397.043, 453.686 394.174 C 451.410 392.037, 450.837 392, 419.860 392 L 388.349 392 386.174 394.314 M 386.174 426.314 C 383.195 429.486, 383.261 434.957, 386.314 437.826 C 388.590 439.963, 389.163 440, 420.140 440 L 451.651 440 453.826 437.686 C 456.805 434.514, 456.739 429.043, 453.686 426.174 C 451.410 424.037, 450.837 424, 419.860 424 L 388.349 424 386.174 426.314" stroke="none" fill="#000000" fill-rule="evenodd"/><path d="M 237.919 40.949 C 222.541 43.758, 205.143 50.754, 192.955 59.031 C 184.750 64.603, 172.145 76.692, 165.931 84.949 C 160.342 92.376, 154.057 103.943, 150.572 113.216 L 148.211 119.500 128.261 119.770 C 109.067 120.030, 108.234 120.125, 106.294 122.270 C 105.185 123.497, 84.408 171.525, 60.123 229 L 15.970 333.500 15.985 400.576 L 16 467.651 18.314 469.826 L 20.629 472 256.140 472 L 491.651 472 493.826 469.686 L 496 467.371 496.015 400.436 L 496.030 333.500 451.877 229 C 427.592 171.525, 406.815 123.497, 405.706 122.270 C 403.766 120.125, 402.933 120.030, 383.739 119.770 L 363.789 119.500 361.428 113.216 C 355.304 96.920, 346.192 83.226, 333.242 70.853 C 319.414 57.642, 303.484 48.597, 284.965 43.441 C 276.889 41.193, 273.078 40.755, 259 40.460 C 249.925 40.269, 240.439 40.489, 237.919 40.949 M 245.058 57.081 C 219.545 60.176, 197.362 72.508, 181.350 92.497 C 155.506 124.760, 153.578 170.094, 176.580 204.664 C 189.520 224.111, 208.845 238.185, 230.711 244.087 C 234.995 245.243, 239.400 246.770, 240.500 247.480 C 241.600 248.189, 245.425 253.762, 249 259.863 C 252.575 265.964, 255.736 270.966, 256.025 270.978 C 256.313 270.990, 259.639 265.807, 263.416 259.459 C 267.194 253.112, 271.008 247.539, 271.892 247.075 C 272.776 246.610, 277.005 245.275, 281.289 244.108 C 297.280 239.749, 310.941 231.802, 323.045 219.818 C 357.784 185.422, 361.005 130.427, 330.513 92.316 C 310.118 66.826, 277.068 53.198, 245.058 57.081 M 210.455 106.455 C 208.845 108.065, 208 110.040, 208 112.195 C 208 115.121, 209.992 117.474, 226.227 133.727 L 244.454 151.975 226.227 170.299 C 210.571 186.039, 208 189.054, 208 191.677 C 208 196.385, 211.393 200, 215.813 200 C 219.235 200, 220.703 198.779, 237.740 181.760 L 256 163.520 274.260 181.760 C 291.107 198.589, 292.796 200, 296.086 200 C 300.729 200, 304 196.663, 304 191.925 C 304 188.791, 302.374 186.855, 286.023 170.523 L 268.046 152.567 286.023 134.422 C 303.404 116.880, 304 116.143, 304 112.212 C 304 109.010, 303.440 107.705, 301.365 106.073 C 295.627 101.559, 294.251 102.381, 274.299 122.227 L 255.975 140.454 237.727 122.227 C 221.474 105.992, 219.121 104, 216.195 104 C 214.040 104, 212.065 104.845, 210.455 106.455 M 70.779 247.050 C 52.783 289.647, 37.772 325.288, 37.422 326.250 C 36.835 327.865, 37.898 328, 51.234 328 L 65.682 328 84.865 266.622 L 104.047 205.243 103.774 187.421 L 103.500 169.600 70.779 247.050 M 408.030 187.447 L 408 205.394 427.159 266.697 L 446.318 328 460.659 328 C 468.546 328, 475 327.739, 475 327.421 C 475 326.702, 410.094 173.073, 408.914 171 C 408.418 170.128, 408.048 177.015, 408.030 187.447 M 32 400 L 32 456 256 456 L 480 456 480 400 L 480 344 394.719 344 L 309.439 344 302.969 357.169 C 299.411 364.413, 295.447 371.613, 294.161 373.169 L 291.822 376 256 376 L 220.178 376 217.839 373.169 C 216.553 371.613, 212.589 364.413, 209.031 357.169 L 202.561 344 117.281 344 L 32 344 32 400 M 386.174 394.314 C 383.195 397.486, 383.261 402.957, 386.314 405.826 C 388.590 407.963, 389.163 408, 420.140 408 L 451.651 408 453.826 405.686 C 456.805 402.514, 456.739 397.043, 453.686 394.174 C 451.410 392.037, 450.837 392, 419.860 392 L 388.349 392 386.174 394.314 M 386.174 426.314 C 383.195 429.486, 383.261 434.957, 386.314 437.826 C 388.590 439.963, 389.163 440, 420.140 440 L 451.651 440 453.826 437.686 C 456.805 434.514, 456.739 429.043, 453.686 426.174 C 451.410 424.037, 450.837 424, 419.860 424 L 388.349 424 386.174 426.314" stroke="none" fill="#000000" fill-rule="evenodd"/><path d="" stroke="none" fill="#040404" fill-rule="evenodd"/></svg>