<svg xmlns="http://www.w3.org/2000/svg" width="512" height="512" viewBox="0 0 512 512" version="1.1"><path d="M 112 168 L 112 208 133.445 208 L 154.890 208 152.566 202.745 C 149.581 195.996, 146.426 184.449, 145.068 175.308 C 143.141 162.331, 143.943 148.113, 147.554 131.250 L 148.250 128 130.125 128 L 112 128 112 168 M 364.036 130.594 C 365.815 135.273, 367.992 151.334, 367.996 159.808 C 368.003 174.008, 364.603 191.057, 359.434 202.745 L 357.110 208 378.555 208 L 400 208 400 168 L 400 128 381.525 128 L 363.050 128 364.036 130.594 M 284.500 177 C 293.838 186.350, 301.703 194, 301.978 194 C 302.253 194, 294.838 186.350, 285.500 177 C 276.162 167.650, 268.297 160, 268.022 160 C 267.747 160, 275.162 167.650, 284.500 177 M 176.500 239 C 179.209 241.750, 181.650 244, 181.925 244 C 182.200 244, 180.209 241.750, 177.500 239 C 174.791 236.250, 172.350 234, 172.075 234 C 171.800 234, 173.791 236.250, 176.500 239 M 334 239.500 C 331.571 241.975, 329.809 244, 330.084 244 C 330.359 244, 332.571 241.975, 335 239.500 C 337.429 237.025, 339.191 235, 338.916 235 C 338.641 235, 336.429 237.025, 334 239.500 M 386.455 394.455 C 384.907 396.002, 384 398.052, 384 400 C 384 401.948, 384.907 403.998, 386.455 405.545 L 388.909 408 420 408 L 451.091 408 453.545 405.545 C 455.093 403.998, 456 401.948, 456 400 C 456 398.052, 455.093 396.002, 453.545 394.455 L 451.091 392 420 392 L 388.909 392 386.455 394.455 M 386.455 426.455 C 384.907 428.002, 384 430.052, 384 432 C 384 433.948, 384.907 435.998, 386.455 437.545 L 388.909 440 420 440 L 451.091 440 453.545 437.545 C 455.093 435.998, 456 433.948, 456 432 C 456 430.052, 455.093 428.002, 453.545 426.455 L 451.091 424 420 424 L 388.909 424 386.455 426.455" stroke="none" fill="#bfbfbf" fill-rule="evenodd"/><path d="M 234 49.982 C 205.895 55.902, 183.233 70.333, 165.839 93.385 C 157.714 104.153, 149.624 120.480, 148.523 128.328 C 148.278 130.073, 147.367 135.100, 146.498 139.500 C 144.498 149.622, 144.438 170.016, 146.379 180.088 C 153.224 215.606, 176.727 245.755, 209.567 261.144 C 214.096 263.267, 220.714 265.767, 224.275 266.701 L 230.750 268.399 240.021 283.950 C 245.121 292.502, 249.972 300.287, 250.802 301.250 C 251.731 302.328, 253.727 303, 256 303 C 258.273 303, 260.269 302.328, 261.198 301.250 C 262.028 300.287, 266.879 292.502, 271.979 283.950 L 281.250 268.399 287.725 266.701 C 319.797 258.289, 350.399 228.843, 361.416 195.793 C 367.295 178.158, 368.866 156.106, 365.426 139.500 C 364.514 135.100, 363.656 130.600, 363.519 129.500 C 362.644 122.490, 356.475 108.697, 349.418 97.970 C 336.582 78.462, 314.477 61.204, 293.158 54.046 C 274.826 47.891, 251.527 46.291, 234 49.982 M 210.174 114.314 C 208.810 115.766, 208 117.913, 208 120.075 C 208 123.209, 209.627 125.146, 225.988 141.488 L 243.976 159.455 225.988 177.539 C 208.661 194.958, 208 195.770, 208 199.637 C 208 204.938, 211.113 208, 216.503 208 C 220.188 208, 221.260 207.122, 238.461 190.012 L 256.545 172.024 274.512 190.012 C 290.270 205.788, 292.870 208, 295.658 208 C 297.406 208, 299.565 207.720, 300.455 207.379 C 302.942 206.425, 305.256 201.172, 304.524 198.142 C 304.139 196.546, 296.891 188.478, 286.217 177.763 L 268.547 160.026 286.198 142.263 C 296.709 131.685, 304.115 123.431, 304.506 121.858 C 305.259 118.829, 302.958 113.581, 300.455 112.621 C 299.565 112.280, 297.214 112, 295.231 112 C 291.897 112, 290.287 113.332, 273.813 129.714 L 256 147.427 238.187 129.714 C 221.042 112.665, 220.223 112, 216.361 112 C 213.460 112, 211.746 112.641, 210.174 114.314 M 24 397.826 L 24 459.651 26.314 461.826 L 28.629 464 256.140 464 L 483.651 464 485.826 461.686 L 488 459.371 488 397.686 L 488 336 396.225 336 L 304.450 336 296.500 352 L 288.550 368 256 368 L 223.450 368 215.500 352 L 207.550 336 115.775 336 L 24 336 24 397.826 M 386 394 C 383.138 396.862, 383.301 402.995, 386.314 405.826 C 388.590 407.963, 389.163 408, 420.140 408 L 451.651 408 453.826 405.686 C 456.805 402.514, 456.739 397.043, 453.686 394.174 C 451.410 392.036, 450.842 392, 419.686 392 C 389.333 392, 387.916 392.084, 386 394 M 386 426 C 383.138 428.862, 383.301 434.995, 386.314 437.826 C 388.590 439.963, 389.163 440, 420.140 440 L 451.651 440 453.826 437.686 C 456.805 434.514, 456.739 429.043, 453.686 426.174 C 451.410 424.036, 450.842 424, 419.686 424 C 389.333 424, 387.916 424.084, 386 426" stroke="none" fill="#f2f2f2" fill-rule="evenodd"/><path d="M 214 112.719 C 210.752 113.892, 209 116.388, 209 119.844 C 209 123.089, 210.487 124.872, 227.227 141.701 L 245.454 160.025 227.227 178.273 C 211.096 194.422, 209 196.892, 209 199.760 C 209 203.971, 212.029 207, 216.240 207 C 219.108 207, 221.578 204.904, 237.727 188.773 L 255.975 170.546 274.299 188.773 C 291.286 205.670, 292.887 207, 296.239 207 C 300.237 207, 304 203.448, 304 199.675 C 304 198.345, 297.400 190.986, 285.285 178.810 L 266.569 160 285.285 141.190 C 297.851 128.560, 304 121.679, 304 120.246 C 304 116.710, 299.778 112.667, 296.085 112.667 C 293.227 112.667, 290.721 114.797, 274.427 131.073 L 256 149.480 237.750 131.338 C 220.132 113.825, 217.233 111.552, 214 112.719 M 92.648 271.250 C 81.799 306.038, 72.941 334.837, 72.962 335.250 C 72.983 335.663, 103.499 336, 140.775 336 L 208.550 336 216.500 352 L 224.450 368 256 368 L 287.550 368 295.497 352.007 L 303.443 336.014 371.545 335.757 L 439.647 335.500 421.817 278.500 C 412.010 247.150, 403.071 218.463, 401.951 214.750 L 399.915 208 378.579 208 L 357.243 208 355.903 211.250 C 351.087 222.930, 332.622 243.867, 319.123 252.955 C 311.178 258.303, 296.523 265.274, 288.173 267.678 L 281.846 269.500 272.831 284.500 C 261.857 302.758, 260.785 304, 256 304 C 251.211 304, 250.140 302.757, 239.135 284.426 L 230.086 269.352 223.793 267.611 C 215.640 265.356, 200.964 258.398, 192.877 252.955 C 179.378 243.867, 160.913 222.930, 156.097 211.250 L 154.757 208 133.565 208 L 112.372 208 92.648 271.250" stroke="none" fill="#595959" fill-rule="evenodd"/><path d="M 273.490 131.250 L 255.500 149.500 273.750 131.510 C 290.706 114.797, 292.452 113, 291.740 113 C 291.596 113, 283.384 121.213, 273.490 131.250 M 226.993 142.250 L 244.479 160 226.493 178.250 L 208.507 196.500 227 178.250 L 245.493 160 227.500 142.250 L 209.507 124.500 226.993 142.250 M 68.295 230.342 C 44.533 286.529, 24.797 333.288, 24.438 334.250 C 23.828 335.886, 25.350 336, 47.850 336 L 71.914 336 76.892 320.250 C 79.630 311.587, 88.655 282.793, 96.946 256.261 L 112.023 208.023 111.761 168.104 L 111.500 128.185 68.295 230.342 M 400.039 167.365 L 400 207.231 419.549 269.865 C 430.301 304.314, 439.332 333.288, 439.617 334.250 C 440.091 335.853, 442.138 336, 464.067 336 C 477.230 336, 488 335.773, 488 335.496 C 488 335.081, 405.663 140.177, 401.400 130.500 C 400.276 127.948, 400.072 133.450, 400.039 167.365 M 273 188.500 C 282.613 198.125, 290.704 206, 290.979 206 C 291.254 206, 283.613 198.125, 274 188.500 C 264.387 178.875, 256.296 171, 256.021 171 C 255.746 171, 263.387 178.875, 273 188.500" stroke="none" fill="#8c8c8c" fill-rule="evenodd"/><path d="M 112 168 L 112 208 133.445 208 L 154.890 208 152.566 202.745 C 149.581 195.996, 146.426 184.449, 145.068 175.308 C 143.141 162.331, 143.943 148.113, 147.554 131.250 L 148.250 128 130.125 128 L 112 128 112 168 M 364.036 130.594 C 365.815 135.273, 367.992 151.334, 367.996 159.808 C 368.003 174.008, 364.603 191.057, 359.434 202.745 L 357.110 208 378.555 208 L 400 208 400 168 L 400 128 381.525 128 L 363.050 128 364.036 130.594 M 284.500 177 C 293.838 186.350, 301.703 194, 301.978 194 C 302.253 194, 294.838 186.350, 285.500 177 C 276.162 167.650, 268.297 160, 268.022 160 C 267.747 160, 275.162 167.650, 284.500 177 M 176.500 239 C 179.209 241.750, 181.650 244, 181.925 244 C 182.200 244, 180.209 241.750, 177.500 239 C 174.791 236.250, 172.350 234, 172.075 234 C 171.800 234, 173.791 236.250, 176.500 239 M 334 239.500 C 331.571 241.975, 329.809 244, 330.084 244 C 330.359 244, 332.571 241.975, 335 239.500 C 337.429 237.025, 339.191 235, 338.916 235 C 338.641 235, 336.429 237.025, 334 239.500 M 386.455 394.455 C 384.907 396.002, 384 398.052, 384 400 C 384 401.948, 384.907 403.998, 386.455 405.545 L 388.909 408 420 408 L 451.091 408 453.545 405.545 C 455.093 403.998, 456 401.948, 456 400 C 456 398.052, 455.093 396.002, 453.545 394.455 L 451.091 392 420 392 L 388.909 392 386.455 394.455 M 386.455 426.455 C 384.907 428.002, 384 430.052, 384 432 C 384 433.948, 384.907 435.998, 386.455 437.545 L 388.909 440 420 440 L 451.091 440 453.545 437.545 C 455.093 435.998, 456 433.948, 456 432 C 456 430.052, 455.093 428.002, 453.545 426.455 L 451.091 424 420 424 L 388.909 424 386.455 426.455" stroke="none" fill="#bfbfbf" fill-rule="evenodd"/><path d="M 234 49.982 C 205.895 55.902, 183.233 70.333, 165.839 93.385 C 157.714 104.153, 149.624 120.480, 148.523 128.328 C 148.278 130.073, 147.367 135.100, 146.498 139.500 C 144.498 149.622, 144.438 170.016, 146.379 180.088 C 153.224 215.606, 176.727 245.755, 209.567 261.144 C 214.096 263.267, 220.714 265.767, 224.275 266.701 L 230.750 268.399 240.021 283.950 C 245.121 292.502, 249.972 300.287, 250.802 301.250 C 251.731 302.328, 253.727 303, 256 303 C 258.273 303, 260.269 302.328, 261.198 301.250 C 262.028 300.287, 266.879 292.502, 271.979 283.950 L 281.250 268.399 287.725 266.701 C 319.797 258.289, 350.399 228.843, 361.416 195.793 C 367.295 178.158, 368.866 156.106, 365.426 139.500 C 364.514 135.100, 363.656 130.600, 363.519 129.500 C 362.644 122.490, 356.475 108.697, 349.418 97.970 C 336.582 78.462, 314.477 61.204, 293.158 54.046 C 274.826 47.891, 251.527 46.291, 234 49.982 M 210.174 114.314 C 208.810 115.766, 208 117.913, 208 120.075 C 208 123.209, 209.627 125.146, 225.988 141.488 L 243.976 159.455 225.988 177.539 C 208.661 194.958, 208 195.770, 208 199.637 C 208 204.938, 211.113 208, 216.503 208 C 220.188 208, 221.260 207.122, 238.461 190.012 L 256.545 172.024 274.512 190.012 C 290.270 205.788, 292.870 208, 295.658 208 C 297.406 208, 299.565 207.720, 300.455 207.379 C 302.942 206.425, 305.256 201.172, 304.524 198.142 C 304.139 196.546, 296.891 188.478, 286.217 177.763 L 268.547 160.026 286.198 142.263 C 296.709 131.685, 304.115 123.431, 304.506 121.858 C 305.259 118.829, 302.958 113.581, 300.455 112.621 C 299.565 112.280, 297.214 112, 295.231 112 C 291.897 112, 290.287 113.332, 273.813 129.714 L 256 147.427 238.187 129.714 C 221.042 112.665, 220.223 112, 216.361 112 C 213.460 112, 211.746 112.641, 210.174 114.314 M 24 397.826 L 24 459.651 26.314 461.826 L 28.629 464 256.140 464 L 483.651 464 485.826 461.686 L 488 459.371 488 397.686 L 488 336 396.225 336 L 304.450 336 296.500 352 L 288.550 368 256 368 L 223.450 368 215.500 352 L 207.550 336 115.775 336 L 24 336 24 397.826 M 386 394 C 383.138 396.862, 383.301 402.995, 386.314 405.826 C 388.590 407.963, 389.163 408, 420.140 408 L 451.651 408 453.826 405.686 C 456.805 402.514, 456.739 397.043, 453.686 394.174 C 451.410 392.036, 450.842 392, 419.686 392 C 389.333 392, 387.916 392.084, 386 394 M 386 426 C 383.138 428.862, 383.301 434.995, 386.314 437.826 C 388.590 439.963, 389.163 440, 420.140 440 L 451.651 440 453.826 437.686 C 456.805 434.514, 456.739 429.043, 453.686 426.174 C 451.410 424.036, 450.842 424, 419.686 424 C 389.333 424, 387.916 424.084, 386 426" stroke="none" fill="#f2f2f2" fill-rule="evenodd"/><path d="M 238 131.500 C 247.613 141.125, 255.704 149, 255.979 149 C 256.254 149, 248.613 141.125, 239 131.500 C 229.387 121.875, 221.296 114, 221.021 114 C 220.746 114, 228.387 121.875, 238 131.500 M 283.996 142.504 L 266.514 160.007 285.004 178.254 L 303.493 196.500 285.507 178.250 L 267.521 160 285 142.500 C 294.613 132.875, 302.254 125, 301.979 125 C 301.704 125, 293.612 132.877, 283.996 142.504 M 238.489 188.250 L 221.500 205.500 238.750 188.511 C 248.238 179.167, 256 171.405, 256 171.261 C 256 170.548, 254.273 172.224, 238.489 188.250" stroke="none" fill="#686868" fill-rule="evenodd"/><path d="M 238.250 130.500 L 256 148.493 273.750 130.500 L 291.500 112.507 273.750 129.993 L 256 147.479 238.250 129.993 L 220.500 112.507 238.250 130.500 M 284.989 142.750 L 267.500 160.500 285.250 143.011 C 301.741 126.762, 303.452 125, 302.739 125 C 302.596 125, 294.608 132.988, 284.989 142.750 M 144.300 154 C 144.300 157.025, 144.487 158.262, 144.716 156.750 C 144.945 155.238, 144.945 152.762, 144.716 151.250 C 144.487 149.738, 144.300 150.975, 144.300 154 M 367.300 154 C 367.300 157.025, 367.487 158.262, 367.716 156.750 C 367.945 155.238, 367.945 152.762, 367.716 151.250 C 367.487 149.738, 367.300 150.975, 367.300 154 M 225.989 177.750 L 208.500 195.500 226.250 178.011 C 242.741 161.762, 244.452 160, 243.739 160 C 243.596 160, 235.608 167.988, 225.989 177.750 M 144.300 166 C 144.300 169.025, 144.487 170.262, 144.716 168.750 C 144.945 167.238, 144.945 164.762, 144.716 163.250 C 144.487 161.738, 144.300 162.975, 144.300 166 M 367.300 166 C 367.300 169.025, 367.487 170.262, 367.716 168.750 C 367.945 167.238, 367.945 164.762, 367.716 163.250 C 367.487 161.738, 367.300 162.975, 367.300 166 M 237.989 189.750 L 220.500 207.500 238.250 190.011 C 254.741 173.762, 256.452 172, 255.739 172 C 255.596 172, 247.608 179.988, 237.989 189.750" stroke="none" fill="#efefef" fill-rule="evenodd"/></svg>